<svg width="43" height="43" viewBox="0 0 43 43" fill="none" xmlns="http://www.w3.org/2000/svg">
<path fill-rule="evenodd" clip-rule="evenodd" d="M42.4016 21.5912C42.4016 10.0151 33.0452 0.630821 21.5035 0.630821C9.96185 0.630821 0.605476 10.0151 0.605476 21.5912C0.605476 33.1673 9.96185 42.5516 21.5035 42.5516C33.0452 42.5516 42.4016 33.1673 42.4016 21.5912ZM19.6596 9.26158C19.6596 8.24016 20.4851 7.41213 21.5035 7.41213C22.5219 7.41213 23.3475 8.24016 23.3475 9.26158V21.5912C23.3475 22.2289 23.0199 22.8216 22.4808 23.1596L15.105 27.7832C14.2414 28.3245 13.1038 28.0612 12.5641 27.1951C12.0243 26.3289 12.2869 25.1879 13.1504 24.6465L19.6596 20.5662V9.26158Z" fill="white"/>
</svg>
