<svg width="16" height="13" viewBox="0 0 16 13" fill="none" xmlns="http://www.w3.org/2000/svg">
<path d="M4.99263 0.0918121C2.62503 0.0918121 0.607971 1.86211 0.607971 4.16128C0.607971 5.74738 1.35068 7.08273 2.33501 8.18889C3.31595 9.29125 4.58153 10.2165 5.72565 10.991L7.69969 12.3272C7.91588 12.4735 8.19937 12.4735 8.41556 12.3272L10.3896 10.991C11.5337 10.2165 12.7993 9.29125 13.7802 8.18889C14.7646 7.08273 15.5073 5.74738 15.5073 4.16128C15.5073 1.86211 13.4902 0.0918121 11.1226 0.0918121C9.90219 0.0918121 8.82827 0.664064 8.05763 1.40451C7.28698 0.664064 6.21307 0.0918121 4.99263 0.0918121Z" fill="white"/>
</svg>
