<svg width="50" height="45" viewBox="0 0 50 45" fill="none" xmlns="http://www.w3.org/2000/svg">
<path d="M7.5 32.8306H40C45.5229 32.8306 50 28.6347 50 23.4587C50 19.0629 46.7708 15.374 42.4143 14.3618C42.4709 13.887 42.5 13.4043 42.5 12.9153C42.5 5.79836 36.3439 0.0289307 28.75 0.0289307C22.4514 0.0289307 17.142 3.99801 15.5139 9.41301C15.3437 9.40494 15.1724 9.40085 15 9.40085C9.47715 9.40085 5 13.5968 5 18.7728C5 18.9058 5.00296 19.0382 5.00881 19.1698C2.09123 20.1324 0 22.7382 0 25.8017C0 29.6837 3.35786 32.8306 7.5 32.8306Z" fill="white"/>
<path d="M13.5365 35.1736C12.9013 35.1736 12.3206 35.51 12.0365 36.0424L8.71353 42.2709C8.15599 43.316 8.96684 44.5455 10.2135 44.5455C10.8487 44.5455 11.4294 44.2092 11.7135 43.6767L15.0365 37.4482C15.594 36.4032 14.7832 35.1736 13.5365 35.1736Z" fill="white"/>
<path d="M21.0365 35.1736C22.2832 35.1736 23.094 36.4032 22.5365 37.4482L19.2135 43.6767C18.9294 44.2092 18.3487 44.5455 17.7135 44.5455C16.4668 44.5455 15.656 43.316 16.2135 42.2709L19.5365 36.0424C19.8206 35.51 20.4013 35.1736 21.0365 35.1736Z" fill="white"/>
<path d="M36.0365 35.1736C37.2832 35.1736 38.094 36.4032 37.5365 37.4482L34.2135 43.6767C33.9294 44.2092 33.3488 44.5455 32.7135 44.5455C31.4668 44.5455 30.656 43.316 31.2135 42.2709L34.5365 36.0424C34.8206 35.51 35.4013 35.1736 36.0365 35.1736Z" fill="white"/>
<path d="M28.5365 35.1736C29.7832 35.1736 30.594 36.4032 30.0365 37.4482L26.7135 43.6767C26.4294 44.2092 25.8487 44.5455 25.2135 44.5455C23.9668 44.5455 23.156 43.316 23.7135 42.2709L27.0365 36.0424C27.3206 35.51 27.9013 35.1736 28.5365 35.1736Z" fill="white"/>
</svg>
