<svg width="41" height="47" viewBox="0 0 41 47" fill="none" xmlns="http://www.w3.org/2000/svg">
<path d="M22.6117 2.06855L20.9867 0.801453L19.3617 2.06855C18.4867 2.65684 0.986664 16.4591 0.986664 28.6775C0.986664 33.4783 3.0938 38.0824 6.84453 41.4771C10.5953 44.8717 15.6823 46.7788 20.9867 46.7788C26.291 46.7788 31.3781 44.8717 35.1288 41.4771C38.8795 38.0824 40.9867 33.4783 40.9867 28.6775C40.9867 16.4591 23.4867 2.65684 22.6117 2.06855ZM26.5617 38.7916L24.3367 34.7414C25.582 34.1787 26.6297 33.3135 27.3626 32.2426C28.0956 31.1716 28.4848 29.9372 28.4867 28.6775H33.4867C33.4843 30.7791 32.8351 32.8386 31.6119 34.6251C30.3888 36.4115 28.64 37.8543 26.5617 38.7916Z" fill="white"/>
</svg>
