<svg width="56" height="52" viewBox="0 0 56 52" fill="none" xmlns="http://www.w3.org/2000/svg">
<path d="M13.1307 8.79269L12.1553 7.87476C11.1798 6.95682 9.60409 6.98036 8.65366 7.87476L8.62865 7.89829C7.65321 8.81623 7.65321 10.299 8.62865 11.1934L9.60409 12.1114C10.5795 13.0293 12.1302 13.0293 13.1057 12.1114L13.1307 12.0878C14.1061 11.1934 14.1061 9.68709 13.1307 8.79269ZM5.52724 23.7621H2.97608C1.60045 23.7621 0.499954 24.7977 0.499954 26.0922V26.1158C0.499954 27.4103 1.60045 28.4459 2.97608 28.4459H5.50223C6.90286 28.4694 8.00337 27.4338 8.00337 26.1393V26.1158C8.00337 24.7977 6.90286 23.7621 5.52724 23.7621ZM28.0375 0.342987H28.0125C26.6118 0.342987 25.5113 1.37861 25.5113 2.67313V4.93266C25.5113 6.22718 26.6118 7.2628 27.9874 7.2628H28.0125C29.4131 7.28634 30.5136 6.25072 30.5136 4.9562V2.67313C30.5136 1.37861 29.4131 0.342987 28.0375 0.342987ZM47.3963 7.89829C46.4208 6.98036 44.8451 6.98036 43.8697 7.87476L42.8942 8.79269C41.9188 9.71063 41.9188 11.1934 42.8942 12.0878L42.9192 12.1114C43.8947 13.0293 45.4704 13.0293 46.4208 12.1114L47.3963 11.1934C48.3717 10.2755 48.3717 8.81623 47.3963 7.89829ZM42.8692 43.4388L43.8447 44.3568C44.8201 45.2747 46.3958 45.2747 47.3713 44.3568C48.3467 43.4388 48.3467 41.956 47.3713 41.0381L46.3958 40.1201C45.4204 39.2022 43.8447 39.2257 42.8942 40.1201C41.8938 41.0616 41.8938 42.5209 42.8692 43.4388ZM48.0216 26.0922V26.1158C48.0216 27.4103 49.1221 28.4459 50.4977 28.4459H53.0238C54.3995 28.4459 55.5 27.4103 55.5 26.1158V26.0922C55.5 24.7977 54.3995 23.7621 53.0238 23.7621H50.4977C49.1221 23.7621 48.0216 24.7977 48.0216 26.0922ZM28.0125 11.9937C19.7337 11.9937 13.0056 18.3251 13.0056 26.1158C13.0056 33.9064 19.7337 40.2378 28.0125 40.2378C36.2912 40.2378 43.0193 33.9064 43.0193 26.1158C43.0193 18.3251 36.2912 11.9937 28.0125 11.9937ZM27.9874 51.8885H28.0125C29.3881 51.8885 30.4886 50.8529 30.4886 49.5584V47.2989C30.4886 46.0043 29.3881 44.9687 28.0125 44.9687H27.9874C26.6118 44.9687 25.5113 46.0043 25.5113 47.2989V49.5584C25.5113 50.8529 26.6118 51.8885 27.9874 51.8885ZM8.62865 44.3332C9.60409 45.2512 11.1798 45.2512 12.1553 44.3332L13.1307 43.4153C14.1061 42.4974 14.0811 41.0145 13.1307 40.1201L13.1057 40.0966C12.1302 39.1787 10.5545 39.1787 9.57908 40.0966L8.60364 41.0145C7.65321 41.956 7.65321 43.4153 8.62865 44.3332Z" fill="white"/>
</svg>
