<svg width="279" height="272" viewBox="0 0 279 272" fill="none" xmlns="http://www.w3.org/2000/svg">
<path d="M174.478 192.667H209.25C234.931 192.667 255.75 172.37 255.75 147.333C255.75 126.07 240.734 108.226 220.477 103.33C220.74 101.033 220.875 98.6987 220.875 96.3333C220.875 61.9076 192.249 34 156.937 34C127.649 34 102.96 53.199 95.3897 79.3922C94.5982 79.3531 93.8015 79.3333 93 79.3333C67.3188 79.3333 46.5 99.6298 46.5 124.667C46.5 125.31 46.5137 125.95 46.541 126.587C32.9742 131.243 23.25 143.848 23.25 158.667C23.25 177.444 38.8641 192.667 58.125 192.667H91.2359L141.032 107.71C146.946 97.6198 162.75 101.711 162.75 113.333V158.667H174.375C183.301 158.667 188.897 168.067 184.468 175.623L174.478 192.667Z" fill="white"/>
<path d="M104.625 192.667L151.125 113.333V170H174.375L127.875 249.333V192.667H104.625Z" fill="white"/>
</svg>
