<svg width="59" height="54" viewBox="0 0 59 54" fill="none" xmlns="http://www.w3.org/2000/svg">
<path d="M29.5 0.125C30.6218 0.125 31.5313 0.964466 31.5313 2V4.5C31.5313 5.53553 30.6218 6.375 29.5 6.375C28.3782 6.375 27.4688 5.53553 27.4688 4.5V2C27.4688 0.964466 28.3782 0.125 29.5 0.125Z" fill="white"/>
<path d="M29.5 12.625C20.8993 12.625 13.9271 19.0609 13.9271 27C13.9271 34.9391 20.8993 41.375 29.5 41.375C38.1007 41.375 45.0729 34.9391 45.0729 27C45.0729 19.0609 38.1007 12.625 29.5 12.625Z" fill="white"/>
<path d="M11.7856 7.99656C10.9923 7.26433 9.70619 7.26433 8.91294 7.99656C8.11969 8.7288 8.11969 9.91598 8.91294 10.6482L10.828 12.416C11.6213 13.1482 12.9074 13.1482 13.7006 12.416C14.4939 11.6837 14.4939 10.4966 13.7006 9.76433L11.7856 7.99656Z" fill="white"/>
<path d="M58.6146 27C58.6146 28.0355 57.7052 28.875 56.5834 28.875H53.875C52.7532 28.875 51.8438 28.0355 51.8438 27C51.8438 25.9645 52.7532 25.125 53.875 25.125H56.5834C57.7052 25.125 58.6146 25.9645 58.6146 27Z" fill="white"/>
<path d="M50.0871 10.6482C50.8803 9.91596 50.8803 8.72877 50.0871 7.99654C49.2938 7.26431 48.0077 7.26431 47.2145 7.99654L45.2994 9.76431C44.5061 10.4965 44.5061 11.6837 45.2994 12.416C46.0926 13.1482 47.3787 13.1482 48.172 12.416L50.0871 10.6482Z" fill="white"/>
<path d="M29.5 47.625C30.6218 47.625 31.5313 48.4645 31.5313 49.5V52C31.5313 53.0355 30.6218 53.875 29.5 53.875C28.3782 53.875 27.4688 53.0355 27.4688 52V49.5C27.4688 48.4645 28.3782 47.625 29.5 47.625Z" fill="white"/>
<path d="M48.1722 41.5841C47.3789 40.8518 46.0928 40.8518 45.2996 41.5841C44.5063 42.3163 44.5063 43.5035 45.2996 44.2357L47.2146 46.0035C48.0079 46.7357 49.294 46.7357 50.0873 46.0035C50.8805 45.2712 50.8805 44.0841 50.0873 43.3518L48.1722 41.5841Z" fill="white"/>
<path d="M7.15627 27C7.15627 28.0355 6.24685 28.875 5.12502 28.875H2.41669C1.29486 28.875 0.385437 28.0355 0.385437 27C0.385437 25.9645 1.29486 25.125 2.41669 25.125H5.12502C6.24685 25.125 7.15627 25.9645 7.15627 27Z" fill="white"/>
<path d="M13.7005 44.2357C14.4937 43.5035 14.4937 42.3163 13.7005 41.584C12.9072 40.8518 11.6211 40.8518 10.8278 41.584L8.91276 43.3518C8.11951 44.084 8.11951 45.2712 8.91276 46.0035C9.70601 46.7357 10.9921 46.7357 11.7854 46.0035L13.7005 44.2357Z" fill="white"/>
</svg>
